# xmcd
#
# Track frame offsets:
#	150
#	41102
#	61937
#
# Disc length: 1105
#
# Revision: 1
# Processed by: cddbd v1.5.1PL0 Copyright (c) Steve Scherf et al.
# Submitted via: CDex 1.51
# Normalized: r0:TRMNUM
#
DISCID=22044f03
DTITLE=MariMari Rythmkiller Machinegun - Since Yesterday
DYEAR=1996
DGENRE=Rock
TTITLE0=Goodnight Darling Ooh (Since Yesterday alternative Ver.#1
TTITLE1=Crying Babe, Since Yesterday (Since Yesterday alternative Ver.#2
TTITLE2=Since Yesterday (Original Ver.)
EXTD=YEAR: 1996
EXTT0=
EXTT1=
EXTT2=
PLAYORDER=
